<svg width="20" height="20" viewBox="0 0 20 20" fill="none" xmlns="http://www.w3.org/2000/svg">
<path d="M10.82 5L10.69 12.0585H9.30507L9.17508 5H10.82ZM10 15C9.72339 15 9.48673 14.9065 9.29007 14.7194C9.09341 14.5291 8.99675 14.3001 9.00008 14.0324C8.99675 13.7679 9.09341 13.5422 9.29007 13.3551C9.48673 13.1648 9.72339 13.0697 10 13.0697C10.27 13.0697 10.5034 13.1648 10.7 13.3551C10.8967 13.5422 10.9967 13.7679 11 14.0324C10.9967 14.2098 10.9483 14.3727 10.855 14.521C10.765 14.6662 10.645 14.7823 10.495 14.8694C10.345 14.9565 10.18 15 10 15Z" fill="#4B4B4C"/>
<circle cx="10" cy="10" r="9.25" stroke="#4B4B4C" stroke-width="1.5"/>
</svg>
