<svg width="18" height="4" viewBox="0 0 18 4" fill="none" xmlns="http://www.w3.org/2000/svg">
<path d="M3.84838 2.19788C3.84838 3.18163 2.98689 3.97913 1.92419 3.97913C0.861489 3.97913 0 3.18163 0 2.19788C0 1.21412 0.861489 0.416626 1.92419 0.416626C2.98689 0.416626 3.84838 1.21412 3.84838 2.19788Z" fill="#9E9FA4"/>
<path d="M10.7755 2.19788C10.7755 3.18163 10.0001 3.97913 9.04369 3.97913C8.08726 3.97913 7.31192 3.18163 7.31192 2.19788C7.31192 1.21412 8.08726 0.416626 9.04369 0.416626C10.0001 0.416626 10.7755 1.21412 10.7755 2.19788Z" fill="#9E9FA4"/>
<path d="M17.7026 2.19788C17.7026 3.18163 16.9272 3.97913 15.9708 3.97913C15.0144 3.97913 14.239 3.18163 14.239 2.19788C14.239 1.21412 15.0144 0.416626 15.9708 0.416626C16.9272 0.416626 17.7026 1.21412 17.7026 2.19788Z" fill="#9E9FA4"/>
</svg>
