<svg width="37" height="38" viewBox="0 0 37 38" fill="none" xmlns="http://www.w3.org/2000/svg">
<path fill-rule="evenodd" clip-rule="evenodd" d="M18.4722 36.1905C27.7025 36.1905 35.1852 28.494 35.1852 19C35.1852 9.50596 27.7025 1.80952 18.4722 1.80952C9.24191 1.80952 1.75926 9.50596 1.75926 19C1.75926 28.494 9.24191 36.1905 18.4722 36.1905ZM18.4722 38C28.6741 38 36.9444 29.4934 36.9444 19C36.9444 8.50659 28.6741 0 18.4722 0C8.2703 0 0 8.50659 0 19C0 29.4934 8.2703 38 18.4722 38Z" fill="#9E9FA4"/>
<path d="M13.4694 19.1979C13.4694 20.1816 12.6079 20.9791 11.5452 20.9791C10.4825 20.9791 9.62097 20.1816 9.62097 19.1979C9.62097 18.2141 10.4825 17.4166 11.5452 17.4166C12.6079 17.4166 13.4694 18.2141 13.4694 19.1979Z" fill="#9E9FA4"/>
<path d="M20.3964 19.1979C20.3964 20.1816 19.6211 20.9791 18.6647 20.9791C17.7082 20.9791 16.9329 20.1816 16.9329 19.1979C16.9329 18.2141 17.7082 17.4166 18.6647 17.4166C19.6211 17.4166 20.3964 18.2141 20.3964 19.1979Z" fill="#9E9FA4"/>
<path d="M27.3235 19.1979C27.3235 20.1816 26.5482 20.9791 25.5918 20.9791C24.6353 20.9791 23.86 20.1816 23.86 19.1979C23.86 18.2141 24.6353 17.4166 25.5918 17.4166C26.5482 17.4166 27.3235 18.2141 27.3235 19.1979Z" fill="#9E9FA4"/>
</svg>
